<svg width="18" height="17" viewBox="0 0 18 17" fill="none" xmlns="http://www.w3.org/2000/svg">
<path fill-rule="evenodd" clip-rule="evenodd" d="M9 2C4.90909 2 1.41545 4.488 0 8C1.41545 11.512 4.90909 14 9 14C13.0909 14 16.5845 11.512 18 8C16.5845 4.488 13.0909 2 9 2ZM9 12C6.74182 12 4.90909 10.208 4.90909 8C4.90909 5.792 6.74182 4 9 4C11.2582 4 13.0909 5.792 13.0909 8C13.0909 10.208 11.2582 12 9 12ZM6.54545 8C6.54545 6.672 7.64182 5.6 9 5.6C10.3582 5.6 11.4545 6.672 11.4545 8C11.4545 9.328 10.3582 10.4 9 10.4C7.64182 10.4 6.54545 9.328 6.54545 8Z" fill="#98A0AD"/>
<path d="M2 12.1717C1.21895 12.9528 1.21895 14.2191 2 15.0002C2.78105 15.7812 4.04738 15.7812 4.82843 15.0002L15.4142 4.41436C16.1953 3.63332 16.1953 2.36699 15.4142 1.58594C14.6332 0.804888 13.3668 0.804889 12.5858 1.58594L2 12.1717Z" fill="#98A0AD" stroke="white" stroke-width="2" stroke-linecap="round"/>
</svg>
