<svg width="24" height="24" viewBox="0 0 24 24" fill="none" xmlns="http://www.w3.org/2000/svg">
<path d="M17.6 10.9474H8.36V7C8.36 5.11363 9.9929 3.57895 12 3.57895C14.0071 3.57895 15.64 5.11363 15.64 7V16.5789C15.64 17.0149 16.0161 17.3684 16.48 17.3684C16.9439 17.3684 17.32 17.0149 17.32 16.5789V7C17.32 4.243 14.9334 2 12 2C9.06655 2 6.68 4.243 6.68 7V10.9474H6.4C5.62681 10.9474 5 11.5365 5 12.2632V20.6842C5 21.4109 5.62681 22 6.4 22H17.6C18.3732 22 19 21.4109 19 20.6842V12.2632C19 11.5365 18.3732 10.9474 17.6 10.9474ZM10.32 15.4211C10.32 14.549 11.0721 13.8421 12 13.8421C12.9278 13.8421 13.68 14.549 13.68 15.4211C13.68 16.0054 13.342 16.5152 12.84 16.7883V19.1053H11.16V16.7883C10.658 16.5152 10.32 16.0054 10.32 15.4211Z" fill="#39C3EF"/>
</svg>
