<svg width="24" height="24" viewBox="0 0 24 24" fill="none" xmlns="http://www.w3.org/2000/svg">
<path d="M20.7498 5H3.24993C2.62618 5 2.13118 5.47345 2.03743 6.08308L11.9999 12.7661L21.9623 6.08308C21.8686 5.47345 21.3736 5 20.7498 5Z" fill="#39C3EF"/>
<path d="M2 16.4443V7.58107L8.74246 12.1043L2 16.4443Z" fill="#39C3EF"/>
<path d="M22 16.4443L15.2576 12.1043L22 7.58107V16.4443Z" fill="#39C3EF"/>
<path d="M12.3436 14.0593L14.1123 12.8731L21.9598 17.9258C21.8635 18.5304 21.371 19 20.7498 19H3.24987C2.62862 19 2.13613 18.5304 2.03988 17.9258L9.88733 12.8718L11.6561 14.0593C11.7611 14.1293 11.8798 14.1637 11.9998 14.1637C12.1198 14.1637 12.2386 14.1293 12.3436 14.0593Z" fill="#39C3EF"/>
</svg>
