<svg width="24" height="24" viewBox="0 0 24 24" fill="none" xmlns="http://www.w3.org/2000/svg">
<path fill-rule="evenodd" clip-rule="evenodd" d="M12 6C7.90909 6 4.41545 8.488 3 12C4.41545 15.512 7.90909 18 12 18C16.0909 18 19.5845 15.512 21 12C19.5845 8.488 16.0909 6 12 6ZM12 16C9.74182 16 7.90909 14.208 7.90909 12C7.90909 9.792 9.74182 8 12 8C14.2582 8 16.0909 9.792 16.0909 12C16.0909 14.208 14.2582 16 12 16ZM9.54545 12C9.54545 10.672 10.6418 9.6 12 9.6C13.3582 9.6 14.4545 10.672 14.4545 12C14.4545 13.328 13.3582 14.4 12 14.4C10.6418 14.4 9.54545 13.328 9.54545 12Z" fill="#98A0AD"/>
<path d="M5 16.1717C4.21895 16.9528 4.21895 18.2191 5 19.0002C5.78105 19.7812 7.04738 19.7812 7.82843 19.0002L18.4142 8.41436C19.1953 7.63332 19.1953 6.36699 18.4142 5.58594C17.6332 4.80489 16.3668 4.80489 15.5858 5.58594L5 16.1717Z" fill="#98A0AD" stroke="white" stroke-width="2" stroke-linecap="round"/>
</svg>
